<svg id="Capa_1" enable-background="new 0 0 512 512" height="512" viewBox="0 0 512 512" width="512" xmlns="http://www.w3.org/2000/svg"><g><g><g><path d="m80.267 7.5c-25.124 0-45.492 20.367-45.492 45.492v406.017c0 25.124 20.367 45.492 45.492 45.492h300.284c25.124 0 45.492-20.367 45.492-45.492v-333.882c0-7.913-3.143-15.501-8.738-21.096l-87.792-87.792c-5.595-5.595-13.184-8.738-21.096-8.738h-228.15z" fill="#f7f4f7"/><g><path d="m417.305 104.03-56.639-56.639v411.617c0 25.124-20.367 45.492-45.492 45.492h65.377c25.124 0 45.492-20.367 45.492-45.492v-333.881c0-7.913-3.143-15.502-8.738-21.097z" fill="#e0dde0"/></g><path d="m417.305 104.03-87.792-87.792c-2.55-2.55-5.518-4.584-8.738-6.051v78.211c0 13.459 10.911 24.37 24.37 24.37h78.211c-1.467-3.22-3.501-6.187-6.051-8.738z" fill="#efd133"/></g><g><path d="m130.884 226.457h-36.596c-3.557 0-6.44-2.883-6.44-6.44v-36.596c0-3.557 2.883-6.44 6.44-6.44h36.596c3.557 0 6.44 2.883 6.44 6.44v36.596c0 3.557-2.883 6.44-6.44 6.44z" fill="#e49542"/><path d="m130.884 319.784h-36.596c-3.557 0-6.44-2.883-6.44-6.44v-36.596c0-3.557 2.883-6.44 6.44-6.44h36.596c3.557 0 6.44 2.883 6.44 6.44v36.596c0 3.556-2.883 6.44-6.44 6.44z" fill="#95d6a4"/><path d="m130.884 413.11h-36.596c-3.557 0-6.44-2.883-6.44-6.44v-36.596c0-3.557 2.883-6.44 6.44-6.44h36.596c3.557 0 6.44 2.883 6.44 6.44v36.596c0 3.557-2.883 6.44-6.44 6.44z" fill="#e07f84"/></g><g><g><path d="m429.739 292.024-31.709-31.709-5.735.339-153.687 153.687c-2.375 2.375-4.496 4.976-6.362 7.747l36.367 36.367c2.771-1.866 5.372-3.987 7.747-6.362l153.687-153.687z" fill="#e07f84"/><path d="m271.514 456.351-37.164-37.164c-3.133 4.024-5.679 8.486-7.521 13.267l-15.809 41.028c-1.495 3.88 2.319 7.693 6.198 6.198l41.028-15.809c4.782-1.841 9.244-4.387 13.268-7.52z" fill="#a87f7f"/><path d="m453.023 275.431-22.976 22.975-37.752-37.752 22.976-22.975 5.525.246 31.771 31.772z" fill="#d1ccd3"/></g></g><path d="m269.924 71.035h-174.594c-4.132 0-7.483 3.35-7.483 7.483v26.769c0 4.132 3.35 7.483 7.483 7.483h174.594c4.132 0 7.483-3.35 7.483-7.483v-26.77c0-4.132-3.35-7.482-7.483-7.482z" fill="#bed8fb"/><path d="m269.924 71.035h-65.377c4.132 0 7.482 3.35 7.482 7.483v26.769c0 4.133-3.35 7.483-7.482 7.483h65.377c4.132 0 7.482-3.35 7.482-7.483v-26.77c.001-4.132-3.349-7.482-7.482-7.482z" fill="#9dc6fb"/></g><path d="m469.422 221.279c10.425 10.425 10.425 27.327 0 37.752l-16.4 16.4-37.752-37.752 16.4-16.4c10.425-10.425 27.327-10.425 37.752 0z" fill="#88a8d8"/><g><path d="m372.971 178.12h-191.128c-4.142 0-7.5 3.358-7.5 7.5s3.358 7.5 7.5 7.5h191.128c4.142 0 7.5-3.358 7.5-7.5s-3.358-7.5-7.5-7.5z"/><path d="m372.971 210.319h-191.128c-4.142 0-7.5 3.358-7.5 7.5s3.358 7.5 7.5 7.5h191.128c4.142 0 7.5-3.358 7.5-7.5s-3.358-7.5-7.5-7.5z"/><path d="m147.367 112.769c0 4.142 3.358 7.5 7.5 7.5h115.057c8.261 0 14.982-6.721 14.982-14.983v-26.768c0-8.261-6.721-14.982-14.982-14.982h-174.594c-8.261 0-14.982 6.721-14.982 14.982v26.769c0 8.262 6.721 14.983 14.982 14.983h24.451c4.142 0 7.5-3.358 7.5-7.5s-3.358-7.5-7.5-7.5l-24.433.017-.018-26.752 174.576-.018.018 26.751h-115.057c-4.142.001-7.5 3.359-7.5 7.501z"/><path d="m426.043 333.057c-4.142 0-7.5 3.358-7.5 7.5v118.452c0 20.949-17.043 37.992-37.992 37.992h-300.284c-20.949 0-37.992-17.043-37.992-37.992v-406.017c0-20.949 17.043-37.992 37.992-37.992 241.684.205 228.307-.493 233.007.545v72.854c0 17.573 14.297 31.87 31.87 31.87h72.854c.349 1.579.545 3.202.545 4.858v64.141c0 4.142 3.358 7.5 7.5 7.5s7.5-3.358 7.5-7.5v-64.141c0-9.973-3.883-19.349-10.935-26.4l-87.792-87.792c-7.051-7.052-16.427-10.935-26.4-10.935h-228.149c-29.22 0-52.992 23.772-52.992 52.992v406.017c0 29.22 23.772 52.992 52.992 52.992h300.285c29.22 0 52.992-23.772 52.992-52.992v-118.452c-.001-4.142-3.359-7.5-7.501-7.5zm-18.106-227.788h-62.793c-9.302 0-16.87-7.568-16.87-16.87v-62.793z"/><path d="m144.824 183.421c0-7.687-6.253-13.94-13.94-13.94h-36.596c-7.687 0-13.94 6.253-13.94 13.94v36.596c0 7.687 6.253 13.94 13.94 13.94h36.596c7.687 0 13.94-6.253 13.94-13.94zm-15 35.536h-34.476v-34.476h34.476z"/><path d="m144.824 276.748c0-7.687-6.253-13.94-13.94-13.94h-36.596c-7.687 0-13.94 6.253-13.94 13.94v36.596c0 7.687 6.253 13.94 13.94 13.94h36.596c7.687 0 13.94-6.253 13.94-13.94zm-15 35.536h-34.476v-34.476h34.476z"/><path d="m130.884 356.135h-36.596c-7.687 0-13.94 6.253-13.94 13.94v36.596c0 7.687 6.253 13.94 13.94 13.94h36.596c7.687 0 13.94-6.253 13.94-13.94v-36.596c0-7.687-6.253-13.94-13.94-13.94zm-1.06 49.475h-34.476v-34.476h34.476z"/><path d="m474.725 215.976c-13.332-13.333-35.026-13.333-48.358 0l-55.47 55.47h-189.054c-4.142 0-7.5 3.358-7.5 7.5s3.358 7.5 7.5 7.5h174.054l-17.199 17.199h-156.855c-4.142 0-7.5 3.358-7.5 7.5s3.358 7.5 7.5 7.5h141.855l-46.127 46.127h-95.728c-4.142 0-7.5 3.358-7.5 7.5s3.358 7.5 7.5 7.5h80.728l-17.199 17.199h-63.528c-4.142 0-7.5 3.358-7.5 7.5s3.358 7.5 7.5 7.5h48.743c-4.623 5.339-8.216 11.195-10.755 17.785l-15.809 41.029c-1.746 4.532-.655 9.68 2.779 13.114 3.452 3.452 8.604 4.517 13.115 2.779l41.027-15.809c8.094-3.118 15.246-8 20.72-13.475l45.424-45.424h45.883c4.142 0 7.5-3.358 7.5-7.5s-3.358-7.5-7.5-7.5h-30.883l17.199-17.199h13.684c4.142 0 7.5-3.358 7.5-7.5 0-3.729-2.725-6.814-6.29-7.394l100.545-100.545c13.332-13.33 13.332-35.023-.001-48.356zm-219.175 240.898-35.339 13.617 13.617-35.34c.533-1.384 1.138-2.742 1.81-4.068l23.981 23.981c-1.326.672-2.684 1.276-4.069 1.81zm16.257-10.835-27.145-27.145 147.633-147.633 27.145 27.145zm158.24-158.239-27.145-27.145 12.369-12.369 27.145 27.145zm34.072-34.072-11.096 11.096-27.146-27.146 11.096-11.096c7.484-7.483 19.661-7.483 27.146 0 7.484 7.484 7.484 19.662 0 27.146z"/></g></g></svg>